<mxfile host="Electron" modified="2024-07-29T23:23:04.445Z" agent="Mozilla/5.0 (Windows NT 10.0; Win64; x64) AppleWebKit/537.36 (KHTML, like Gecko) draw.io/24.5.3 Chrome/124.0.6367.207 Electron/30.0.6 Safari/537.36" etag="qFkrMrZArMvLYmjdkVP-" version="24.5.3" type="device">
  <diagram name="Page-1" id="kPQH4aINAVmXp3Ccq4Ig">
    <mxGraphModel dx="1036" dy="623" grid="1" gridSize="10" guides="1" tooltips="1" connect="1" arrows="1" fold="1" page="1" pageScale="1" pageWidth="827" pageHeight="1169" math="1" shadow="0">
      <root>
        <mxCell id="0" />
        <mxCell id="1" parent="0" />
        <mxCell id="bn4d_MbLuXa8T2bNHeC6-1" value="Compilers Design &amp; Theory" style="shape=hexagon;perimeter=hexagonPerimeter2;whiteSpace=wrap;fixedSize=1;size=16;fillColor=#cdeb8b;strokeColor=#000000;fontFamily=ADLaM Display;fontSize=20;strokeWidth=2;align=center;spacingLeft=0;spacingBottom=5;fillStyle=hachure;fontStyle=1;fontSource=https%3A%2F%2Ffonts.googleapis.com%2Fcss%3Ffamily%3DADLaM%2BDisplay;" vertex="1" parent="1">
          <mxGeometry x="266.68" y="30" width="293.32" height="57.14" as="geometry" />
        </mxCell>
        <mxCell id="bn4d_MbLuXa8T2bNHeC6-2" value="" style="group;flipH=0;" vertex="1" connectable="0" parent="1">
          <mxGeometry x="40" y="120" width="730" height="100" as="geometry" />
        </mxCell>
        <mxCell id="bn4d_MbLuXa8T2bNHeC6-3" value="It translates (compiles) a program written in a high-level programming language into the&lt;br&gt;low-level machine language that is required by computers." style="rounded=1;whiteSpace=wrap;html=1;hachureGap=4;fontFamily=Mina;strokeWidth=2;fillColor=#cce5ff;strokeColor=#000000;fontSize=16;fontStyle=1;labelBorderColor=none;textShadow=0;labelBackgroundColor=none;align=left;spacing=7;verticalAlign=middle;" vertex="1" parent="bn4d_MbLuXa8T2bNHeC6-2">
          <mxGeometry y="40" width="730" height="60" as="geometry" />
        </mxCell>
        <mxCell id="bn4d_MbLuXa8T2bNHeC6-4" value="Compiler" style="rounded=1;whiteSpace=wrap;html=1;hachureGap=4;fontFamily=ADLaM Display;strokeWidth=2;fillColor=#0050ef;strokeColor=#000000;fontSize=22;fontStyle=0;labelBorderColor=none;textShadow=0;labelBackgroundColor=none;align=center;spacing=5;verticalAlign=middle;spacingTop=0;spacingRight=2;fontColor=#ffffff;fontSource=https%3A%2F%2Ffonts.googleapis.com%2Fcss%3Ffamily%3DADLaM%2BDisplay;" vertex="1" parent="bn4d_MbLuXa8T2bNHeC6-2">
          <mxGeometry x="20" width="140" height="40" as="geometry" />
        </mxCell>
        <mxCell id="bn4d_MbLuXa8T2bNHeC6-5" value="" style="group;flipH=0;" vertex="1" connectable="0" parent="1">
          <mxGeometry x="40" y="240" width="730" height="100" as="geometry" />
        </mxCell>
        <mxCell id="bn4d_MbLuXa8T2bNHeC6-6" value="An interpreter is another way of implementing a programming language. Interpretation shares many aspects with compiling.&amp;nbsp;&amp;nbsp;" style="rounded=1;whiteSpace=wrap;html=1;hachureGap=4;fontFamily=Mina;strokeWidth=2;fillColor=#ffcccc;strokeColor=#000000;fontSize=16;fontStyle=1;labelBorderColor=none;textShadow=0;labelBackgroundColor=none;align=left;spacing=7;verticalAlign=middle;" vertex="1" parent="bn4d_MbLuXa8T2bNHeC6-5">
          <mxGeometry y="40" width="730" height="60" as="geometry" />
        </mxCell>
        <mxCell id="bn4d_MbLuXa8T2bNHeC6-7" value="Interpreter" style="rounded=1;whiteSpace=wrap;html=1;hachureGap=4;fontFamily=ADLaM Display;strokeWidth=2;fillColor=#e51400;strokeColor=#000000;fontSize=22;fontStyle=0;labelBorderColor=none;textShadow=0;labelBackgroundColor=none;align=center;spacing=5;verticalAlign=middle;spacingTop=0;spacingRight=2;fontColor=#ffffff;fontSource=https%3A%2F%2Ffonts.googleapis.com%2Fcss%3Ffamily%3DADLaM%2BDisplay;" vertex="1" parent="bn4d_MbLuXa8T2bNHeC6-5">
          <mxGeometry x="20" width="140" height="40" as="geometry" />
        </mxCell>
      </root>
    </mxGraphModel>
  </diagram>
</mxfile>
